<?xml version="1.0" standalone="no"?>
<svg version="1.0" xmlns="http://www.w3.org/2000/svg" width="512.000000pt" height="512.000000pt"
    viewBox="0 0 512.000000 512.000000" preserveAspectRatio="xMidYMid meet">
    <g transform="translate(0.000000,512.000000) scale(0.100000,-0.100000)" fill="#000000"
        stroke="none">
        <path d="M303 5052 c-86 -74 -272 -269 -286 -299 -33 -73 41 -14 241 191 78
80 142 151 142 156 0 23 -34 6 -97 -48z" />
        <path d="M503 5051 c-104 -90 -480 -475 -488 -500 -12 -37 2 -35 52 7 72 60
533 529 533 541 0 24 -33 8 -97 -48z" />
        <path d="M703 5051 c-112 -97 -680 -674 -687 -699 -23 -71 24 -29 442 391 188
189 342 349 342 356 0 24 -32 8 -97 -48z" />
        <path d="M903 5051 c-116 -100 -880 -875 -888 -899 -22 -72 19 -35 543 491
243 244 442 449 442 455 0 25 -32 10 -97 -47z" />
        <path d="M1103 5051 c-118 -102 -1080 -1075 -1088 -1099 -11 -38 2 -37 52 6
79 66 1133 1127 1133 1140 0 25 -32 10 -97 -47z" />
        <path d="M1303 5051 c-119 -104 -1280 -1275 -1288 -1299 -11 -38 2 -37 52 6
80 67 1333 1327 1333 1340 0 25 -32 10 -97 -47z" />
        <path d="M1503 5051 c-121 -105 -1480 -1475 -1488 -1499 -11 -38 2 -37 52 6
81 68 1533 1527 1533 1540 0 25 -32 10 -97 -47z" />
        <path d="M1703 5051 c-121 -105 -1680 -1675 -1688 -1699 -11 -38 2 -37 52 6
81 68 1733 1727 1733 1740 0 25 -32 10 -97 -47z" />
        <path d="M1903 5051 c-122 -106 -1881 -1875 -1888 -1899 -11 -38 2 -37 52 6
82 69 1933 1927 1933 1940 0 25 -32 10 -97 -47z" />
        <path d="M2103 5051 c-38 -33 -336 -327 -663 -655 -464 -465 -597 -593 -607
-584 -16 13 -13 16 -48 -47 -18 -32 -148 -171 -370 -395 -188 -190 -356 -362
-373 -383 -32 -38 -41 -67 -21 -67 6 0 151 138 321 308 226 224 303 295 284
262 -14 -25 -26 -48 -26 -51 0 -3 12 -11 27 -18 l27 -12 -290 -292 c-160 -161
-305 -309 -322 -330 -32 -38 -41 -67 -21 -67 7 0 161 149 344 331 l333 331 41
-24 40 -24 -325 -325 c-409 -407 -481 -489 -432 -489 6 0 189 178 407 395
l396 394 35 -21 c19 -12 37 -23 40 -25 2 -2 -183 -191 -411 -421 -229 -229
-430 -434 -447 -455 -33 -38 -41 -67 -20 -67 6 0 217 205 468 455 251 250 460
455 464 455 5 0 24 -10 43 -21 l35 -22 -479 -481 c-264 -265 -494 -498 -511
-519 -33 -39 -41 -67 -20 -67 6 0 246 235 534 521 l522 521 41 -24 40 -24
-515 -515 c-284 -282 -542 -544 -575 -582 -57 -65 -72 -97 -47 -97 6 0 275
263 597 585 l586 585 35 -21 c19 -12 37 -23 40 -26 2 -2 -268 -277 -601 -611
-333 -334 -620 -624 -637 -645 -33 -39 -41 -67 -20 -67 6 0 302 290 658 645
355 355 649 645 654 645 5 0 24 -10 43 -21 l35 -22 -669 -671 c-368 -369 -684
-688 -701 -709 -33 -39 -41 -67 -20 -67 6 0 332 320 724 711 l712 711 40 -24
41 -24 -705 -705 c-388 -387 -732 -734 -765 -772 -57 -65 -72 -97 -47 -97 7 0
361 349 788 775 l775 775 35 -21 c19 -12 37 -23 40 -26 2 -2 -354 -363 -791
-801 -438 -438 -810 -814 -827 -835 -32 -38 -41 -67 -21 -67 6 0 139 126 294
281 l283 281 22 -42 22 -43 -284 -286 c-157 -157 -299 -303 -316 -324 -32 -38
-41 -67 -21 -67 6 0 155 142 329 316 l318 316 25 -38 25 -39 -322 -325 c-177
-179 -337 -342 -354 -363 -33 -38 -41 -67 -21 -67 7 0 170 158 363 350 194
193 355 350 359 350 4 0 15 -17 26 -38 l20 -38 -331 -330 c-413 -412 -486
-494 -437 -494 7 0 188 175 403 389 l391 389 150 87 150 86 -521 -523 c-286
-288 -535 -540 -552 -561 -33 -39 -41 -67 -20 -67 6 0 296 283 642 628 l631
629 120 68 c66 38 131 75 145 83 14 9 -315 -326 -731 -744 -415 -417 -770
-776 -787 -797 -33 -39 -41 -67 -20 -67 7 0 402 389 878 864 l865 864 135 77
c74 43 140 80 145 83 6 2 -437 -443 -982 -990 -546 -546 -993 -999 -993 -1006
0 -21 28 -13 67 20 21 17 502 494 1068 1059 722 720 1046 1037 1083 1058 l52
30 0 -42 0 -42 -1035 -1035 c-569 -570 -1035 -1041 -1035 -1048 0 -21 28 -13
67 20 21 17 480 473 1021 1012 l982 981 0 -65 0 -65 -935 -935 c-514 -515
-935 -941 -935 -948 0 -21 28 -13 67 20 21 17 435 428 921 912 l882 881 0 -65
0 -65 -835 -835 c-459 -460 -835 -841 -835 -848 0 -21 28 -13 67 20 21 17 390
383 821 812 l782 781 0 -65 0 -64 -735 -736 c-404 -405 -735 -741 -735 -748 0
-21 28 -13 67 20 21 17 345 338 721 712 l682 681 0 -65 0 -64 -635 -636 c-349
-350 -635 -642 -635 -648 0 -21 28 -13 67 20 21 17 300 293 621 612 l582 581
0 -65 0 -64 -535 -536 c-294 -295 -535 -542 -535 -548 0 -21 28 -13 67 20 21
17 255 248 521 512 l482 481 0 -65 0 -64 -435 -436 c-239 -240 -435 -442 -435
-448 0 -21 29 -13 67 20 21 17 210 203 421 412 l382 381 0 -64 0 -65 -335
-337 c-184 -185 -335 -341 -335 -348 0 -20 29 -11 67 21 21 17 165 158 321
312 l282 281 0 -64 0 -64 -235 -238 c-129 -130 -235 -242 -235 -248 0 -42 90
31 315 258 l150 151 64 0 64 0 -196 -199 c-109 -110 -197 -205 -197 -210 0
-42 90 32 315 258 l150 151 64 0 64 0 -196 -199 c-109 -110 -197 -205 -197
-210 0 -42 90 32 315 258 105 106 156 151 172 151 17 0 23 6 23 23 0 16 147
169 544 566 l543 543 41 -23 41 -24 -739 -741 c-407 -407 -740 -745 -740 -752
0 -25 32 -10 97 47 38 33 374 365 748 740 l679 680 36 -21 c19 -12 37 -23 39
-25 3 -2 -311 -320 -697 -706 -386 -387 -702 -709 -702 -715 0 -25 32 -10 97
47 38 33 356 348 708 700 352 353 643 641 647 641 4 0 23 -10 43 -21 l37 -22
-666 -667 c-366 -366 -666 -672 -666 -678 0 -21 28 -13 67 20 21 17 325 317
675 666 l636 635 27 -17 c15 -10 28 -16 29 -14 2 2 29 48 60 103 54 94 76 119
375 420 175 176 332 337 349 358 32 38 41 67 21 67 -6 0 -140 -128 -298 -284
l-286 -284 -37 19 c-21 11 -38 23 -38 27 0 4 124 131 276 282 357 356 430 440
383 440 -7 0 -170 -157 -363 -349 l-351 -349 -39 25 -39 25 370 372 c203 204
384 388 401 409 33 38 41 67 20 67 -6 0 -197 -185 -423 -411 l-413 -411 -42
22 -43 22 435 436 c239 241 449 454 466 475 33 39 41 67 20 67 -6 0 -226 -214
-488 -476 l-477 -475 -36 21 c-21 12 -37 25 -37 29 0 3 210 215 466 471 256
256 492 495 525 533 57 65 72 97 47 97 -6 0 -255 -242 -552 -539 l-541 -539
-30 19 c-16 10 -34 21 -40 23 -5 2 242 257 551 567 308 310 575 581 592 602
33 39 41 67 20 67 -6 0 -282 -270 -613 -600 -330 -330 -604 -600 -607 -600 -4
0 -23 10 -43 22 l-37 21 624 626 c344 344 639 643 656 664 33 39 41 67 20 67
-6 0 -312 -299 -678 -665 l-666 -666 -42 24 -41 23 660 660 c364 362 687 689
720 727 57 65 72 97 47 97 -7 0 -341 -328 -742 -729 l-731 -729 -30 19 c-16
10 -34 21 -40 23 -5 2 328 343 741 757 413 415 765 771 782 792 33 39 41 67
20 67 -7 0 -368 -355 -803 -790 -435 -434 -794 -790 -797 -790 -4 0 -23 10
-43 22 l-37 21 814 816 c448 449 829 833 846 854 32 38 41 67 21 67 -6 0 -144
-131 -305 -292 -162 -160 -295 -290 -297 -287 -2 2 -13 20 -25 39 l-21 36 270
269 c351 350 425 435 378 435 -7 0 -161 -148 -343 -329 l-331 -330 -24 41 -23
41 334 336 c184 185 349 353 366 374 33 38 41 67 21 67 -7 0 -177 -165 -379
-366 l-367 -365 -22 36 c-11 20 -21 39 -21 43 0 4 153 160 341 347 425 424
497 505 447 505 -6 0 -212 -200 -457 -443 -442 -440 -447 -444 -556 -507 -60
-34 -126 -72 -145 -83 -19 -11 222 238 536 554 314 316 585 591 602 612 33 39
41 67 20 67 -6 0 -318 -306 -692 -679 l-681 -679 -121 -70 c-67 -38 -132 -75
-145 -82 -13 -7 339 352 782 796 443 445 820 826 837 847 33 39 41 67 20 67
-7 0 -424 -411 -928 -914 l-915 -915 -150 -86 -150 -87 1018 1019 c559 560
1017 1024 1017 1031 0 21 -28 13 -67 -20 -21 -17 -514 -507 -1095 -1087
l-1058 -1056 0 65 0 65 1010 1010 c556 556 1010 1016 1010 1023 0 21 -28 13
-67 -20 -21 -17 -469 -462 -995 -987 l-958 -956 0 65 0 65 910 910 c501 501
910 916 910 923 0 21 -28 13 -67 -20 -21 -17 -424 -417 -895 -887 l-858 -856
0 65 0 64 810 811 c446 446 810 816 810 823 0 21 -28 13 -67 -20 -21 -17 -379
-372 -795 -787 l-758 -756 0 65 0 64 710 711 c391 391 710 717 710 723 0 21
-28 13 -67 -20 -21 -17 -334 -327 -695 -687 l-658 -656 0 65 0 64 610 611
c336 336 610 617 610 623 0 21 -28 13 -67 -20 -21 -17 -289 -282 -595 -587
l-558 -556 0 65 0 64 510 511 c281 282 510 517 510 523 0 21 -28 13 -67 -20
-21 -17 -244 -237 -495 -487 l-458 -456 0 65 0 64 410 411 c226 227 410 417
410 423 0 21 -29 13 -67 -20 -21 -17 -199 -192 -395 -387 l-358 -356 0 64 0
65 310 312 c171 171 310 317 310 323 0 20 -29 11 -67 -21 -21 -17 -154 -147
-295 -287 l-258 -256 0 64 0 64 210 213 c116 117 210 217 210 223 0 42 -90
-32 -310 -253 l-145 -146 -64 0 -64 0 191 194 c106 107 192 200 192 205 0 42
-91 -32 -310 -253 l-145 -146 -64 0 -64 0 191 194 c106 107 192 200 192 205 0
20 -29 11 -67 -21 -21 -17 -369 -361 -773 -764 l-735 -732 -39 25 -39 25 727
727 c399 400 726 732 726 739 0 21 -28 13 -67 -20 -21 -17 -351 -344 -734
-726 l-696 -694 -43 22 -43 22 692 692 c380 381 691 698 691 704 0 25 -32 10
-97 -47 -38 -33 -351 -343 -697 -689 l-630 -631 -38 20 c-21 11 -38 23 -38 26
0 4 292 300 650 658 358 358 650 657 650 663 0 25 -32 10 -97 -47z m-254
-1047 l-493 -493 -38 20 c-21 11 -38 23 -38 27 0 4 237 244 528 535 l527 527
3 -62 3 -62 -492 -492z m63 -137 l-430 -430 -41 24 -42 23 468 468 468 468 3
-62 3 -62 -429 -429z m66 -134 c-200 -200 -367 -363 -373 -363 -5 0 -25 9 -44
21 l-34 21 404 404 404 404 3 -62 3 -62 -363 -363z m61 -139 c-300 -300 -303
-303 -328 -289 -14 8 -33 19 -41 24 -12 9 51 76 325 351 l340 340 3 -62 3 -62
-302 -302z m63 -137 l-240 -240 -41 24 -42 23 278 278 278 278 3 -62 3 -62
-239 -239z m66 -134 c-95 -95 -177 -173 -182 -173 -5 0 -24 10 -43 21 l-35 22
214 214 213 213 3 -62 3 -62 -173 -173z m61 -139 c-110 -111 -113 -112 -138
-99 -61 33 -66 25 94 185 l150 150 3 -62 3 -62 -112 -112z m1675 -325 l-520
-520 -42 23 -41 24 412 412 412 412 145 84 c80 47 147 85 150 85 3 1 -229
-233 -516 -520z m-1612 188 l-50 -50 -41 24 -42 23 88 88 88 89 3 -63 3 -62
-49 -49z m1314 -286 l-349 -350 -39 22 c-21 12 -38 24 -38 27 0 3 106 111 235
240 l235 235 148 87 c81 47 149 87 152 87 3 1 -152 -156 -344 -348z m-301
-101 c-93 -93 -173 -170 -177 -170 -4 0 -23 10 -43 21 l-37 22 64 64 c46 46
102 87 208 148 80 46 147 85 150 85 3 0 -72 -76 -165 -170z m-1548 109 l35
-22 -443 -444 -444 -444 -140 -81 c-77 -44 -144 -83 -150 -86 -5 -2 237 244
540 547 302 303 554 551 559 551 5 0 24 -10 43 -21z m125 -72 l38 -22 -278
-276 c-273 -272 -279 -277 -397 -344 -66 -38 -131 -75 -145 -83 -14 -9 146
156 355 366 209 210 382 382 385 382 3 0 22 -10 42 -23z m158 -97 c0 -3 -44
-49 -97 -102 -84 -83 -119 -109 -248 -183 l-150 -86 209 210 210 210 38 -21
c21 -12 38 -24 38 -28z m982 -561 l41 -21 -139 -139 -139 -139 -3 62 -3 62 98
98 c54 54 99 98 101 98 1 0 21 -9 44 -21z m122 -70 c20 -12 36 -24 36 -28 0
-3 -90 -96 -200 -206 l-200 -200 0 65 0 65 162 162 c90 90 164 163 165 163 1
0 18 -9 37 -21z m166 -99 c0 -3 -119 -124 -265 -270 l-265 -265 0 65 0 65 226
226 226 226 39 -21 c21 -12 39 -23 39 -26z m95 -52 l37 -21 -329 -329 -328
-328 -3 62 -3 62 288 288 c158 158 291 288 295 288 4 0 23 -10 43 -22z m123
-71 l41 -23 -394 -394 -395 -395 0 65 0 65 352 352 c194 194 354 353 354 353
1 0 20 -10 42 -23z m162 -97 c0 -3 -205 -210 -455 -460 l-455 -455 0 65 0 65
417 417 416 417 39 -22 c21 -12 38 -24 38 -27z m95 -52 l37 -21 -519 -519
-518 -518 -3 62 -3 62 478 478 c263 263 481 478 485 478 4 0 23 -10 43 -22z" />
        <path d="M4122 1078 c-535 -535 -992 -995 -1014 -1021 -43 -50 -44 -63 -6 -52
24 7 1853 1826 1959 1948 57 65 72 97 47 97 -7 0 -450 -438 -986 -972z" />
        <path d="M4222 978 c-480 -480 -892 -895 -914 -921 -43 -50 -44 -63 -6 -52 24
8 1653 1626 1759 1748 57 65 72 97 47 97 -7 0 -405 -393 -886 -872z" />
        <path d="M4322 878 c-754 -754 -860 -863 -849 -874 3 -3 16 -3 29 1 24 8 1454
1427 1559 1548 57 65 72 97 47 97 -7 0 -360 -348 -786 -772z" />
        <path d="M4422 778 c-658 -658 -760 -763 -749 -774 3 -3 16 -3 29 1 24 8 1255
1228 1359 1348 57 65 72 97 47 97 -6 0 -315 -303 -686 -672z" />
        <path d="M4522 678 c-664 -663 -694 -695 -620 -673 24 8 1056 1030 1159 1148
57 65 72 97 47 97 -6 0 -270 -258 -586 -572z" />
        <path d="M4623 578 c-558 -557 -594 -595 -521 -573 24 8 858 832 959 948 57
65 72 97 47 97 -6 0 -225 -213 -485 -472z" />
        <path d="M4723 478 c-452 -450 -492 -495 -421 -472 25 7 661 634 759 747 56
65 72 97 48 97 -7 0 -180 -168 -386 -372z" />
        <path d="M4823 378 c-345 -342 -390 -394 -322 -373 25 8 468 441 560 548 56
64 72 97 48 97 -6 0 -135 -123 -286 -272z" />
        <path d="M4924 278 c-185 -182 -261 -265 -250 -275 14 -14 62 23 192 149 203
197 286 298 244 298 -6 0 -90 -78 -186 -172z" />
    </g>
</svg>