<?xml version="1.0" encoding="iso-8859-1"?>
<svg version="1.1" id="Capa_1" xmlns="http://www.w3.org/2000/svg" x="0px" y="0px" width="100px"
    height="100px" viewBox="0 0 143.732 143.732" style="enable-background:new 0 0 143.732 143.732;"
    xml:space="preserve">
		<path style="fill:#009e8c" d="M22.738,30.86c0,10.3,8.378,18.678,18.678,18.678c10.3,0,18.677-8.378,18.677-18.678c0-10.3-8.377-18.677-18.677-18.677
			C31.116,12.183,22.738,20.56,22.738,30.86z" />
    <path style="fill:#009e8c" d="M102.318,127.49c10.301,0,18.679-8.377,18.679-18.678c0-10.299-8.378-18.674-18.679-18.674
			c-10.3,0-18.678,8.377-18.678,18.677S92.019,127.49,102.318,127.49z" />
    <path style="fill:#009e8c" d="M25.209,142.521c1.24,0.817,2.638,1.211,4.02,1.211c2.373,0,4.702-1.154,6.105-3.281l85.263-129.114
			c2.225-3.369,1.297-7.903-2.07-10.127c-3.369-2.224-7.903-1.296-10.127,2.07L23.135,132.395
			C20.911,135.765,21.839,140.297,25.209,142.521z" />
</svg>
